# xmcd
#
# Track frame offsets: 
#        150
#        18289
#        31934
#        45264
#        65952
#        89272
#        107846
#        121397
#        143520
#        161292
#        177213
#        197349
#        209923
#        231023
#        249971
#        269838
#        293868
#        315116
#        332757
#
# Disc length: 4717 seconds
#
# Revision: 5
# Processed by: cddbd v1.5.2PL0 Copyright (c) Steve Scherf et al.
# Submitted via: ExactAudioCopyFreeDBPlugin 1.0
#
DISCID=06126b13
DTITLE=Drake - If You're Reading This It's Too Late (Clean)
DYEAR=2015
DGENRE=Rap
TTITLE0=Legend
TTITLE1=Energy
TTITLE2=10 Bands
TTITLE3=Know Yourself
TTITLE4=No Tellin'
TTITLE5=Madonna
TTITLE6=6 God
TTITLE7=Star67
TTITLE8=Preach (feat. PartyNextDoor)
TTITLE9=Wednesday Night Interlude (feat. PartyNextDoor)
TTITLE10=Used To (feat. Lil Wayne)
TTITLE11=6 Man
TTITLE12=Now and Forever
TTITLE13=Company (feat. Travi$ Scott)
TTITLE14=You and the 6
TTITLE15=Jungle
TTITLE16=6 PM in New York
TTITLE17=How About Now (Bonus Track)
TTITLE18=My Side (Bonus Track)
EXTD=
EXTT0=
EXTT1=
EXTT2=
EXTT3=
EXTT4=
EXTT5=
EXTT6=
EXTT7=
EXTT8=
EXTT9=
EXTT10=
EXTT11=
EXTT12=
EXTT13=
EXTT14=
EXTT15=
EXTT16=
EXTT17=
EXTT18=
PLAYORDER=
